# xmcd CD database file
#
# Track frame offsets:
#	150
#	13587
#	27161
#	41447
#	53303
#	65566
#	79819
#	91516
#	105868
#	120009
#	135029
#	149087
#
# Disc length: 2162 seconds
#
# Revision: 0
# Processed by: cddbd v1.5.1PL2 Copyright (c) Steve Scherf et al.
# Submitted via: CDex 1.51
#
DISCID=7e08700c
DTITLE=Various Artist - Velvet Martini Disc IV
DYEAR=2005
DGENRE=Jazz
TTITLE0=Anita O'Day and Roy Eldridge
TTITLE1=Spike Jones With His City Slickers - Cocktails For Two
TTITLE2=Mel Torme - Blue Moon
TTITLE3=Louis Armstrong - Jeepers Creepers
TTITLE4=Harry "The Hipster" Gibson - Get Your Juices At The Dueces
TTITLE5=Lee Wiley - It's Only A Paper Moon
TTITLE6=Ella Fitzgerald - A-Tisket A-Tasket
TTITLE7=Buddy Clark with Anita Gordon - I'll Dance At Your Wedding
TTITLE8=Louis Prima - Angelina
TTITLE9=Charles Trenet - Beyond The Sea (La Mer)
TTITLE10=Bing Crosby - Please
TTITLE11=Mary Martin - My Heart Belongs To Daddy
EXTD=YEAR: 2005
EXTT0=
EXTT1=
EXTT2=
EXTT3=
EXTT4=
EXTT5=
EXTT6=
EXTT7=
EXTT8=
EXTT9=
EXTT10=
EXTT11=
PLAYORDER=
